<?xml version="1.0" encoding="UTF-8" standalone="no"?>
<!DOCTYPE svg PUBLIC "-//W3C//DTD SVG 1.1//EN" "http://www.w3.org/Graphics/SVG/1.1/DTD/svg11.dtd">
<svg width="100%" height="100%" viewBox="0 0 900 900" version="1.1" xmlns="http://www.w3.org/2000/svg" xmlns:xlink="http://www.w3.org/1999/xlink" xml:space="preserve" xmlns:serif="http://www.serif.com/" style="fill-rule:evenodd;clip-rule:evenodd;">
    <rect x="0" y="0" width="900" height="900" style="fill:rgb(19,19,19);"/>
    <path d="M0,484L37.5,488.8C75,493.7 150,503.3 225,522.3C300,541.3 375,569.7 450,561.3C525,553 600,508 675,489.8C750,471.7 825,480.3 862.5,484.7L900,489L900,901L0,901L0,484Z" style="fill:rgb(17,17,17);fill-rule:nonzero;"/>
    <path d="M0,576L37.5,576.3C75,576.7 150,577.3 225,585.8C300,594.3 375,610.7 450,604.7C525,598.7 600,570.3 675,559.5C750,548.7 825,555.3 862.5,558.7L900,562L900,901L0,901L0,576Z" style="fill:rgb(21,21,21);fill-rule:nonzero;"/>
    <path d="M0,606L37.5,605C75,604 150,602 225,615.3C300,628.7 375,657.3 450,674.8C525,692.3 600,698.7 675,687.5C750,676.3 825,647.7 862.5,633.3L900,619L900,901L0,901L0,606Z" style="fill:rgb(24,24,24);fill-rule:nonzero;"/>
    <path d="M0,697L37.5,705.8C75,714.7 150,732.3 225,730.3C300,728.3 375,706.7 450,704.7C525,702.7 600,720.3 675,717.2C750,714 825,690 862.5,678L900,666L900,901L0,901L0,697Z" style="fill:rgb(29,29,29);fill-rule:nonzero;"/>
    <g transform="matrix(-1,0,0,1.19463,900,-175.364)">
        <path d="M0,779L37.5,784.2C75,789.3 150,799.7 225,814.5C300,829.3 375,848.7 450,852C525,855.3 600,842.7 675,834.3C750,826 825,822 862.5,820L900,818L900,901L0,901L0,779Z" style="fill:rgb(38,38,38);fill-rule:nonzero;"/>
    </g>
    <g id="arweaveLogo.svg" transform="matrix(5.51448,0,0,5.51448,450,450)">
        <g opacity="0.9">
            <g transform="matrix(1,0,0,1,-16,-16)">
                <clipPath id="_clip1">
                    <rect x="0" y="0" width="32" height="32"/>
                </clipPath>
                <g clip-path="url(#_clip1)">
                    <circle cx="15.9" cy="15.9" r="14.7" style="fill:none;stroke:white;stroke-width:2.5px;"/>
                    <g transform="matrix(1,0,0,1,-0.549712,0)">
                        <path d="M18.7,21.2C18.6,21.1 18.6,20.9 18.5,20.7C18.5,20.5 18.4,20.3 18.4,20.1C18.2,20.3 18,20.4 17.8,20.6C17.6,20.8 17.3,20.9 17.1,21C16.8,21.1 16.6,21.2 16.2,21.3C15.9,21.4 15.5,21.4 15.2,21.4C14.6,21.4 14.1,21.3 13.6,21.1C13.1,20.9 12.7,20.7 12.3,20.4C11.9,20.1 11.7,19.7 11.5,19.3C11.3,18.9 11.2,18.4 11.2,17.9C11.2,16.7 11.7,15.7 12.6,15.1C13.5,14.4 14.9,14.1 16.7,14.1L18.4,14.1L18.4,13.4C18.4,12.8 18.2,12.4 17.9,12.1C17.5,11.8 17,11.6 16.3,11.6C15.7,11.6 15.3,11.7 15,12C14.7,12.3 14.6,12.6 14.6,13L11.6,13C11.6,12.5 11.7,12 11.9,11.6C12.1,11.2 12.4,10.8 12.9,10.4C13.3,10.1 13.8,9.8 14.4,9.6C15,9.4 15.7,9.3 16.5,9.3C17.2,9.3 17.8,9.4 18.4,9.6C19,9.8 19.5,10 20,10.4C20.4,10.7 20.8,11.2 21,11.7C21.2,12.2 21.4,12.8 21.4,13.5L21.4,18.5C21.4,19.1 21.4,19.6 21.5,20C21.6,20.4 21.7,20.8 21.8,21L21.8,21.2L18.7,21.2ZM15.8,19.1C16.1,19.1 16.4,19.1 16.6,19C16.9,18.9 17.1,18.8 17.3,18.7C17.5,18.6 17.7,18.5 17.8,18.3C17.9,18.2 18.1,18 18.2,17.9L18.2,15.9L16.7,15.9C16.2,15.9 15.8,15.9 15.5,16C15.2,16.1 14.9,16.2 14.7,16.4C14.5,16.6 14.3,16.7 14.2,17C14.1,17.2 14.1,17.5 14.1,17.7C14.1,18.1 14.2,18.4 14.5,18.7C14.8,19 15.3,19.1 15.8,19.1Z" style="fill:white;fill-rule:nonzero;"/>
                    </g>
                </g>
            </g>
        </g>
    </g>
</svg>
