<?xml version="1.0" encoding="UTF-8" standalone="no"?>
<!DOCTYPE svg PUBLIC "-//W3C//DTD SVG 1.1//EN" "http://www.w3.org/Graphics/SVG/1.1/DTD/svg11.dtd">
<svg width="100%" height="100%" viewBox="0 0 1200 630" version="1.1" xmlns="http://www.w3.org/2000/svg" xmlns:xlink="http://www.w3.org/1999/xlink" xml:space="preserve" xmlns:serif="http://www.serif.com/" style="fill-rule:evenodd;clip-rule:evenodd;stroke-linejoin:round;stroke-miterlimit:2;">
    <g transform="matrix(1.33333,0,0,1.33333,0,-285)">
        <rect x="0" y="0" width="900" height="900" style="fill:rgb(17,17,17);"/>
    </g>
    <g transform="matrix(1.60386,-0.0646693,0.0560336,1.38968,-122.366,-328.305)">
        <path d="M0,484L37.5,488.8C75,493.7 150,503.3 225,522.3C300,541.3 375,569.7 450,561.3C525,553 600,508 675,489.8C750,471.7 825,480.3 862.5,484.7L900,489L900,901L0,901L0,484Z" style="fill:rgb(14,14,14);fill-rule:nonzero;stroke:black;stroke-opacity:0.48;stroke-width:0.67px;"/>
    </g>
    <g transform="matrix(1.44632,-0.0251551,0.0241089,1.38617,-28.1126,-333.941)">
        <path d="M0,576L37.5,576.3C75,576.7 150,577.3 225,585.8C300,594.3 375,610.7 450,604.7C525,598.7 600,570.3 675,559.5C750,548.7 825,555.3 862.5,558.7L900,562L900,901L0,901L0,576Z" style="fill:rgb(17,17,17);fill-rule:nonzero;stroke:black;stroke-opacity:0.7;stroke-width:0.71px;"/>
    </g>
    <g transform="matrix(1.49721,-0.0989871,0.106987,0.752734,-156.964,79.3119)">
        <path d="M0,606L37.5,605C75,604 150,602 225,615.3C300,628.7 375,657.3 450,674.8C525,692.3 600,698.7 675,687.5C750,676.3 825,647.7 862.5,633.3L900,619L900,901L0,901L0,606Z" style="fill:rgb(20,20,20);fill-rule:nonzero;stroke:black;stroke-opacity:0.75;stroke-width:0.82px;"/>
    </g>
    <g transform="matrix(1.48803,0.0109688,-0.014322,1.02764,-58.641,-146.279)">
        <path d="M0,697L37.5,705.8C75,714.7 150,732.3 225,730.3C300,728.3 375,706.7 450,704.7C525,702.7 600,720.3 675,717.2C750,714 825,690 862.5,678L900,666L900,901L0,901L0,697Z" style="fill:rgb(26,26,26);fill-rule:nonzero;stroke:black;stroke-opacity:0.81;stroke-width:0.78px;"/>
    </g>
    <g transform="matrix(0.449218,-1.38778e-17,1.38778e-17,0.449218,76.807,-208.193)">
        <g id="arweave.svg">
            <g>
                <path d="M1164.58,0C1807.33,0 2329.16,521.832 2329.16,1164.58C2329.16,1807.33 1807.33,2329.16 1164.58,2329.16C521.829,2329.16 0,1807.33 0,1164.58C0,521.829 521.832,0 1164.58,0ZM1164.58,181.398C1707.22,181.398 2147.77,621.948 2147.77,1164.58C2147.77,1707.22 1707.22,2147.77 1164.58,2147.77C621.945,2147.77 181.395,1707.22 181.395,1164.58C181.395,621.948 621.945,181.398 1164.58,181.398Z" style="fill:rgb(16,16,16);"/>
                <path d="M1164.58,0C1807.33,0 2329.16,521.832 2329.16,1164.58C2329.16,1807.33 1807.33,2329.16 1164.58,2329.16C521.829,2329.16 0,1807.33 0,1164.58C0,521.829 521.832,0 1164.58,0ZM1164.58,17.809C1797.5,17.809 2311.35,531.661 2311.35,1164.58C2311.35,1797.5 1797.5,2311.35 1164.58,2311.35C531.658,2311.35 17.809,1797.5 17.809,1164.58C17.809,531.658 531.661,17.809 1164.58,17.809ZM1164.58,163.589C612.116,163.589 163.586,612.119 163.586,1164.58C163.586,1717.05 612.116,2165.58 1164.58,2165.58C1717.05,2165.58 2165.58,1717.05 2165.58,1164.58C2165.58,612.119 1717.05,163.589 1164.58,163.589ZM1164.58,181.398C1707.22,181.398 2147.77,621.948 2147.77,1164.58C2147.77,1707.22 1707.22,2147.77 1164.58,2147.77C621.945,2147.77 181.395,1707.22 181.395,1164.58C181.395,621.948 621.945,181.398 1164.58,181.398Z" style="fill:rgb(229,229,229);"/>
                <g transform="matrix(1,0,0,1,0,19.5224)">
                    <path d="M1342.38,1536.38C1338.03,1525.56 1333.68,1514.74 1329.34,1501.75C1324.99,1488.76 1322.82,1473.61 1320.64,1460.63C1309.77,1473.61 1294.55,1484.43 1279.33,1497.42C1264.11,1508.24 1246.72,1519.06 1227.15,1527.72C1209.76,1536.38 1188.02,1542.88 1166.28,1547.2C1144.54,1551.53 1120.62,1555.86 1094.54,1555.86C1053.23,1555.86 1014.09,1549.37 977.132,1538.55C942.348,1525.56 911.913,1510.41 885.823,1486.6C859.734,1464.96 840.165,1438.98 827.124,1408.68C811.905,1378.38 805.38,1345.91 805.38,1309.12C805.38,1222.55 837.994,1155.45 903.214,1107.84C968.437,1060.22 1066.27,1036.41 1194.54,1036.41L1314.12,1036.41L1314.12,986.633C1314.12,947.673 1301.07,915.205 1274.98,893.563C1248.9,869.755 1211.94,858.934 1161.93,858.934C1118.45,858.934 1088.01,867.59 1066.27,887.072C1046.7,904.384 1035.84,930.357 1035.84,960.66L822.775,960.66C822.775,926.027 831.47,891.398 846.689,861.099C861.909,828.631 885.823,802.658 914.088,778.85C944.522,755.042 981.482,735.565 1022.79,722.578C1066.27,707.427 1116.27,700.936 1170.63,700.936C1220.63,700.936 1266.29,707.427 1309.77,718.248C1353.25,731.235 1390.21,748.551 1422.82,772.359C1455.43,796.167 1479.35,826.47 1496.74,863.264C1514.13,900.058 1522.83,941.178 1522.83,988.794L1522.83,1341.59C1522.83,1384.87 1525,1421.67 1531.53,1451.97C1538.05,1480.11 1544.57,1506.08 1555.44,1525.56L1563.77,1538.55L1343.33,1538.55L1342.38,1536.38ZM1140.19,1387.04C1161.93,1387.04 1181.5,1384.87 1198.89,1378.38C1216.28,1374.05 1233.68,1367.56 1248.9,1358.9C1264.11,1350.24 1277.16,1341.59 1288.03,1330.77C1298.9,1319.94 1307.6,1309.12 1314.12,1298.3L1314.12,1157.62L1205.41,1157.62C1172.8,1157.62 1144.54,1161.94 1120.62,1168.44C1096.71,1174.93 1077.14,1183.59 1064.1,1194.41C1048.88,1205.23 1038.01,1218.22 1031.49,1235.53C1024.96,1250.68 1020.62,1268 1020.62,1287.48C1020.62,1315.62 1031.49,1339.42 1051.06,1358.9C1068.44,1378.38 1098.88,1387.04 1140.19,1387.04Z" style="fill:rgb(16,16,16);fill-rule:nonzero;"/>
                </g>
                <g transform="matrix(1,0,0,1,0,19.5224)">
                    <path d="M1342.38,1536.38C1338.03,1525.56 1333.68,1514.74 1329.34,1501.75C1324.99,1488.76 1322.82,1473.61 1320.64,1460.63C1309.77,1473.61 1294.55,1484.43 1279.33,1497.42C1264.11,1508.24 1246.72,1519.06 1227.15,1527.72C1209.76,1536.38 1188.02,1542.88 1166.28,1547.2C1144.54,1551.53 1120.62,1555.86 1094.54,1555.86C1053.23,1555.86 1014.09,1549.37 977.132,1538.55C942.348,1525.56 911.913,1510.41 885.823,1486.6C859.734,1464.96 840.165,1438.98 827.124,1408.68C811.905,1378.38 805.38,1345.91 805.38,1309.12C805.38,1222.55 837.994,1155.45 903.214,1107.84C968.437,1060.22 1066.27,1036.41 1194.54,1036.41L1314.12,1036.41L1314.12,986.633C1314.12,947.673 1301.07,915.205 1274.98,893.563C1248.9,869.755 1211.94,858.934 1161.93,858.934C1118.45,858.934 1088.01,867.59 1066.27,887.072C1046.7,904.384 1035.84,930.357 1035.84,960.66L822.775,960.66C822.775,926.027 831.47,891.398 846.689,861.099C861.909,828.631 885.823,802.658 914.088,778.85C944.522,755.042 981.482,735.565 1022.79,722.578C1066.27,707.427 1116.27,700.936 1170.63,700.936C1220.63,700.936 1266.29,707.427 1309.77,718.248C1353.25,731.235 1390.21,748.551 1422.82,772.359C1455.43,796.167 1479.35,826.47 1496.74,863.264C1514.13,900.058 1522.83,941.178 1522.83,988.794L1522.83,1341.59C1522.83,1384.87 1525,1421.67 1531.53,1451.97C1538.05,1480.11 1544.57,1506.08 1555.44,1525.56L1563.77,1538.55L1343.33,1538.55L1342.38,1536.38ZM1533.33,1520.74L1355.31,1520.74C1352.28,1513.1 1349.25,1505.14 1346.23,1496.11L1346.23,1496.1C1342.16,1483.97 1340.24,1469.8 1338.2,1457.68L1306.99,1449.2C1296.85,1461.31 1282.58,1471.3 1268.38,1483.36C1254.22,1493.38 1238.08,1503.41 1219.94,1511.43L1219.57,1511.6C1203.11,1519.8 1182.94,1525.73 1162.81,1529.73C1142.11,1533.86 1119.36,1538.05 1094.54,1538.05C1055.23,1538.05 1017.97,1531.89 982.779,1521.65C950.463,1509.54 922.086,1495.58 897.828,1473.45L897.517,1473.16C873.33,1453.1 855.41,1429.35 843.482,1401.64L843.274,1401.16L843.038,1400.69C829.046,1372.83 823.189,1342.94 823.189,1309.12C823.189,1228.79 853.195,1166.4 913.714,1122.22L913.715,1122.22C976.543,1076.35 1070.98,1054.22 1194.54,1054.22L1331.93,1054.22L1331.93,986.633C1331.93,941.99 1316.46,905.001 1286.66,880.118C1257.81,853.932 1217.19,841.125 1161.93,841.125C1112.94,841.125 1078.92,851.839 1054.42,873.78C1035.22,890.785 1022.83,914.717 1019.17,942.852C1019.17,942.851 841.409,942.851 841.409,942.851C843.786,917.057 851.218,891.759 862.603,869.092L862.711,868.877C876.895,838.621 899.179,814.726 925.303,792.688C954.117,770.199 989.084,751.843 1028.13,739.567L1028.39,739.485C1070.4,724.846 1118.43,718.745 1170.63,718.745C1218.93,718.745 1263.04,725.002 1305.06,735.427C1346.29,747.778 1381.38,764.152 1412.32,786.742C1442.48,808.765 1464.55,836.84 1480.64,870.874C1496.97,905.43 1505.02,944.074 1505.02,988.794L1505.02,1341.59C1505.02,1386.34 1507.37,1424.39 1514.12,1455.72L1514.15,1455.86C1519.7,1479.81 1525.39,1502.16 1533.33,1520.74ZM1140.19,1404.85C1163.85,1404.85 1185.16,1402.33 1204.16,1395.42C1222.79,1390.7 1241.39,1383.66 1257.71,1374.38C1274.41,1364.87 1288.66,1355.27 1300.59,1343.39L1300.6,1343.39C1312.61,1331.42 1322.17,1319.44 1329.37,1307.49L1331.93,1303.25L1331.93,1139.81L1205.41,1139.81C1171,1139.81 1141.19,1144.4 1115.95,1151.25C1089.45,1158.45 1067.85,1168.34 1053.23,1180.29C1035.41,1193.08 1022.72,1208.52 1014.96,1228.88C1007.65,1245.97 1002.81,1265.52 1002.81,1287.48C1002.81,1320.4 1015.35,1348.33 1038.14,1371.17C1058.24,1393.39 1092.76,1404.85 1140.19,1404.85ZM1140.19,1387.04C1161.93,1387.04 1181.5,1384.87 1198.89,1378.38C1216.28,1374.05 1233.68,1367.56 1248.9,1358.9C1264.11,1350.24 1277.16,1341.59 1288.03,1330.77C1298.9,1319.94 1307.6,1309.12 1314.12,1298.3L1314.12,1157.62L1205.41,1157.62C1172.8,1157.62 1144.54,1161.94 1120.62,1168.44C1096.71,1174.93 1077.14,1183.59 1064.1,1194.41C1048.88,1205.23 1038.01,1218.22 1031.49,1235.53C1024.96,1250.68 1020.62,1268 1020.62,1287.48C1020.62,1315.62 1031.49,1339.42 1051.06,1358.9C1068.44,1378.38 1098.88,1387.04 1140.19,1387.04Z" style="fill:rgb(229,229,229);"/>
                </g>
            </g>
        </g>
    </g>
</svg>
