<?xml version="1.0" encoding="UTF-8" standalone="no"?>
<!DOCTYPE svg PUBLIC "-//W3C//DTD SVG 1.1//EN" "http://www.w3.org/Graphics/SVG/1.1/DTD/svg11.dtd">
<svg width="100%" height="100%" viewBox="0 0 1200 1200" version="1.1" xmlns="http://www.w3.org/2000/svg" xmlns:xlink="http://www.w3.org/1999/xlink" xml:space="preserve" xmlns:serif="http://www.serif.com/" style="fill-rule:evenodd;clip-rule:evenodd;stroke-linejoin:round;stroke-miterlimit:2;">
    <g transform="matrix(1.33333,0,0,1.33333,0,0)">
        <rect x="0" y="0" width="900" height="900" style="fill:rgb(19,19,19);"/>
    </g>
    <g transform="matrix(1.33333,0,0,0.816206,0,494.858)">
        <path d="M0,484L37.5,488.8C75,493.7 150,503.3 225,522.3C300,541.3 375,569.7 450,561.3C525,553 600,508 675,489.8C750,471.7 825,480.3 862.5,484.7L900,489L900,901L0,901L0,484Z" style="fill:rgb(17,17,17);fill-rule:nonzero;"/>
    </g>
    <g transform="matrix(1.33333,0,0,0.816206,0,500.316)">
        <path d="M0,606L37.5,605C75,604 150,602 225,615.3C300,628.7 375,657.3 450,674.8C525,692.3 600,698.7 675,687.5C750,676.3 825,647.7 862.5,633.3L900,619L900,901L0,901L0,606Z" style="fill:rgb(24,24,24);fill-rule:nonzero;"/>
    </g>
    <g transform="matrix(-1.33333,0,0,0.975066,1200,351.724)">
        <path d="M0,779L37.5,784.2C75,789.3 150,799.7 225,814.5C300,829.3 375,848.7 450,852C525,855.3 600,842.7 675,834.3C750,826 825,822 862.5,820L900,818L900,901L0,901L0,779Z" style="fill:rgb(38,38,38);fill-rule:nonzero;"/>
    </g>
    <g transform="matrix(0.245298,0,0,0.245298,314.288,314.288)">
        <g id="arweave.svg">
            <g>
                <path d="M1164.58,0C1807.33,0 2329.16,521.832 2329.16,1164.58C2329.16,1807.33 1807.33,2329.16 1164.58,2329.16C521.829,2329.16 0,1807.33 0,1164.58C0,521.829 521.832,0 1164.58,0ZM1164.58,181.398C1707.22,181.398 2147.77,621.948 2147.77,1164.58C2147.77,1707.22 1707.22,2147.77 1164.58,2147.77C621.945,2147.77 181.395,1707.22 181.395,1164.58C181.395,621.948 621.945,181.398 1164.58,181.398Z" style="fill:rgb(231,231,231);"/>
                <path d="M1342.38,1536.38C1338.03,1525.56 1333.68,1514.74 1329.34,1501.75C1324.99,1488.76 1322.82,1473.61 1320.64,1460.63C1309.77,1473.61 1294.55,1484.43 1279.33,1497.42C1264.11,1508.24 1246.72,1519.06 1227.15,1527.72C1209.76,1536.38 1188.02,1542.88 1166.28,1547.2C1144.54,1551.53 1120.62,1555.86 1094.54,1555.86C1053.23,1555.86 1014.09,1549.37 977.132,1538.55C942.348,1525.56 911.913,1510.41 885.823,1486.6C859.734,1464.96 840.165,1438.98 827.124,1408.68C811.905,1378.38 805.38,1345.91 805.38,1309.12C805.38,1222.55 837.994,1155.45 903.214,1107.84C968.437,1060.22 1066.27,1036.41 1194.54,1036.41L1314.12,1036.41L1314.12,986.633C1314.12,947.673 1301.07,915.205 1274.98,893.563C1248.9,869.755 1211.94,858.934 1161.93,858.934C1118.45,858.934 1088.01,867.59 1066.27,887.072C1046.7,904.384 1035.84,930.357 1035.84,960.66L822.775,960.66C822.775,926.027 831.47,891.398 846.689,861.099C861.909,828.631 885.823,802.658 914.088,778.85C944.522,755.042 981.482,735.565 1022.79,722.578C1066.27,707.427 1116.27,700.936 1170.63,700.936C1220.63,700.936 1266.29,707.427 1309.77,718.248C1353.25,731.235 1390.21,748.551 1422.82,772.359C1455.43,796.167 1479.35,826.47 1496.74,863.264C1514.13,900.058 1522.83,941.178 1522.83,988.794L1522.83,1341.59C1522.83,1384.87 1525,1421.67 1531.53,1451.97C1538.05,1480.11 1544.57,1506.08 1555.44,1525.56L1563.77,1538.55L1343.33,1538.55L1342.38,1536.38ZM1140.19,1387.04C1161.93,1387.04 1181.5,1384.87 1198.89,1378.38C1216.28,1374.05 1233.68,1367.56 1248.9,1358.9C1264.11,1350.24 1277.16,1341.59 1288.03,1330.77C1298.9,1319.94 1307.6,1309.12 1314.12,1298.3L1314.12,1157.62L1205.41,1157.62C1172.8,1157.62 1144.54,1161.94 1120.62,1168.44C1096.71,1174.93 1077.14,1183.59 1064.1,1194.41C1048.88,1205.23 1038.01,1218.22 1031.49,1235.53C1024.96,1250.68 1020.62,1268 1020.62,1287.48C1020.62,1315.62 1031.49,1339.42 1051.06,1358.9C1068.44,1378.38 1098.88,1387.04 1140.19,1387.04Z" style="fill:rgb(231,231,231);fill-rule:nonzero;"/>
            </g>
        </g>
    </g>
</svg>
