<svg viewBox="0 0 48 48" xmlns="http://www.w3.org/2000/svg">
    <g transform="matrix(1.20907,0,0,1.20907,-5.01763,-5.01763)">
        <path d="M24,24.6C24.433,24.6 24.792,24.458 25.075,24.175C25.358,23.892 25.5,23.533 25.5,23.1L25.5,15.75C25.5,15.317 25.358,14.958 25.075,14.675C24.792,14.392 24.433,14.25 24,14.25C23.567,14.25 23.208,14.392 22.925,14.675C22.642,14.958 22.5,15.317 22.5,15.75L22.5,23.1C22.5,23.533 22.642,23.892 22.925,24.175C23.208,24.458 23.567,24.6 24,24.6ZM24,31.3C24.467,31.3 24.867,31.133 25.2,30.8C25.533,30.467 25.7,30.067 25.7,29.6C25.7,29.133 25.533,28.733 25.2,28.4C24.867,28.067 24.467,27.9 24,27.9C23.533,27.9 23.133,28.067 22.8,28.4C22.467,28.733 22.3,29.133 22.3,29.6C22.3,30.067 22.467,30.467 22.8,30.8C23.133,31.133 23.533,31.3 24,31.3ZM24,43.85C23.867,43.85 23.742,43.842 23.625,43.825C23.508,43.808 23.4,43.783 23.3,43.75C18.833,42.417 15.167,39.675 12.3,35.525C9.433,31.375 8,26.817 8,21.85L8,12.05C8,11.417 8.183,10.842 8.55,10.325C8.917,9.808 9.383,9.433 9.95,9.2L22.95,4.35C23.317,4.217 23.667,4.15 24,4.15C24.333,4.15 24.683,4.217 25.05,4.35L38.05,9.2C38.617,9.433 39.083,9.808 39.45,10.325C39.817,10.842 40,11.417 40,12.05L40,21.85C40,26.817 38.567,31.375 35.7,35.525C32.833,39.675 29.167,42.417 24.7,43.75L24,43.85ZM24,40.85C27.833,39.583 30.958,37.192 33.375,33.675C35.792,30.158 37,26.217 37,21.85L37,12.05L24,7.15L11,12.05L11,21.85C11,26.217 12.208,30.158 14.625,33.675C17.042,37.192 20.167,39.583 24,40.85Z" style="fill-rule:nonzero;"/>
    </g>
</svg>