<svg xmlns="http://www.w3.org/2000/svg" viewBox="0 0 48 48">
    <g transform="matrix(1,0,0,-1,0,48.6)">
        <path d="M24,42.1C23.5,42.1 23.092,41.942 22.775,41.625C22.458,41.308 22.3,40.9 22.3,40.4L22.3,12.25L19,15.6C18.667,15.933 18.267,16.1 17.8,16.1C17.333,16.1 16.933,15.933 16.6,15.6C16.267,15.233 16.1,14.825 16.1,14.375C16.1,13.925 16.267,13.533 16.6,13.2L22.8,7C23,6.8 23.192,6.667 23.375,6.6C23.558,6.533 23.767,6.5 24,6.5C24.233,6.5 24.442,6.533 24.625,6.6C24.808,6.667 25,6.8 25.2,7L31.4,13.2C31.733,13.533 31.9,13.925 31.9,14.375C31.9,14.825 31.733,15.233 31.4,15.6C31.067,15.933 30.667,16.1 30.2,16.1C29.733,16.1 29.333,15.933 29,15.6L25.7,12.25L25.7,40.4C25.7,40.9 25.542,41.308 25.225,41.625C24.908,41.942 24.5,42.1 24,42.1Z" style="fill-rule:nonzero;"/>
    </g>
</svg>
