<?xml version="1.0" encoding="UTF-8" standalone="no"?><!DOCTYPE svg PUBLIC "-//W3C//DTD SVG 1.1//EN" "http://www.w3.org/Graphics/SVG/1.1/DTD/svg11.dtd"><svg width="100%" height="100%" viewBox="0 0 2330 2330" version="1.1" xmlns="http://www.w3.org/2000/svg" xmlns:xlink="http://www.w3.org/1999/xlink" xml:space="preserve" xmlns:serif="http://www.serif.com/" style="fill-rule:evenodd;clip-rule:evenodd;stroke-linejoin:round;stroke-miterlimit:2;"><rect x="0" y="0" width="2329.17" height="2329.17" style="fill:#0f0f0f;"/><path d="M1164.58,181.31c542.684,-0 983.274,440.59 983.274,983.273c-0,542.684 -440.59,983.274 -983.274,983.274c-542.683,-0 -983.273,-440.59 -983.273,-983.274c-0,-542.683 440.59,-983.273 983.273,-983.273Zm0,181.398c442.568,-0 801.876,359.308 801.876,801.875c-0,442.568 -359.308,801.876 -801.876,801.876c-442.567,-0 -801.875,-359.308 -801.875,-801.876c-0,-442.567 359.308,-801.875 801.875,-801.875Z" style="fill:#fff;"/><path d="M1314.7,1478.5c-3.672,-9.137 -7.341,-18.274 -11.013,-29.238c-3.673,-10.965 -5.506,-23.757 -7.342,-34.722c-9.177,10.965 -22.027,20.101 -34.877,31.066c-12.85,9.136 -27.533,18.273 -44.056,25.585c-14.683,7.309 -33.041,12.793 -51.396,16.445c-18.356,3.656 -38.547,7.309 -60.575,7.309c-34.877,-0 -67.919,-5.481 -99.124,-14.617c-29.369,-10.965 -55.066,-23.758 -77.093,-43.859c-22.028,-18.273 -38.55,-40.202 -49.561,-65.788c-12.85,-25.581 -18.358,-52.995 -18.358,-84.06c-0,-73.097 27.536,-129.744 82.601,-169.946c55.07,-40.203 137.671,-60.304 245.973,-60.304l100.958,-0l-0,-42.03c-0,-32.894 -11.014,-60.307 -33.042,-78.581c-22.024,-20.101 -53.229,-29.237 -95.448,-29.237c-36.714,-0 -62.411,7.308 -80.77,23.757c-16.519,14.617 -25.696,36.546 -25.696,62.131l-179.89,0c-0,-29.241 7.341,-58.479 20.191,-84.06c12.85,-27.414 33.042,-49.343 56.905,-69.444c25.697,-20.101 56.902,-36.546 91.78,-47.511c36.71,-12.793 78.93,-18.273 124.821,-18.273c42.219,-0 80.766,5.48 117.48,14.617c36.71,10.965 67.915,25.585 95.452,45.686c27.532,20.102 47.724,45.687 62.41,76.753c14.683,31.065 22.028,65.784 22.028,105.986l-0,297.869c-0,36.546 1.832,67.612 7.341,93.197c5.505,23.758 11.014,45.687 20.192,62.132l7.035,10.965l-186.12,-0l-0.806,-1.828Zm-170.712,-126.092c18.359,0 34.878,-1.828 49.564,-7.308c14.683,-3.656 29.369,-9.137 42.219,-16.449c12.847,-7.308 23.86,-14.617 33.038,-23.754c9.181,-9.136 16.522,-18.276 22.028,-27.413l-0,-118.779l-91.78,-0c-27.533,-0 -51.397,3.652 -71.588,9.137c-20.191,5.48 -36.714,12.792 -47.728,21.929c-12.846,9.136 -22.024,20.101 -27.533,34.718c-5.505,12.793 -9.177,27.413 -9.177,43.859c-0,23.757 9.177,43.858 25.7,60.303c14.683,16.449 40.383,23.757 75.257,23.757Z" style="fill:#fff;fill-rule:nonzero;"/></svg>