<?xml version="1.0" encoding="UTF-8" standalone="no"?>
<!DOCTYPE svg PUBLIC "-//W3C//DTD SVG 1.1//EN" "http://www.w3.org/Graphics/SVG/1.1/DTD/svg11.dtd">
<svg width="100%" height="100%" viewBox="0 0 32 32" version="1.1" xmlns="http://www.w3.org/2000/svg" xmlns:xlink="http://www.w3.org/1999/xlink" xml:space="preserve" xmlns:serif="http://www.serif.com/" style="fill-rule:evenodd;clip-rule:evenodd;">
    <circle cx="15.9" cy="15.9" r="14.7" style="fill:none;stroke:white;stroke-width:2.5px;"/>
    <g transform="matrix(1,0,0,1,-0.549712,0)">
        <path d="M18.7,21.2C18.6,21.1 18.6,20.9 18.5,20.7C18.5,20.5 18.4,20.3 18.4,20.1C18.2,20.3 18,20.4 17.8,20.6C17.6,20.8 17.3,20.9 17.1,21C16.8,21.1 16.6,21.2 16.2,21.3C15.9,21.4 15.5,21.4 15.2,21.4C14.6,21.4 14.1,21.3 13.6,21.1C13.1,20.9 12.7,20.7 12.3,20.4C11.9,20.1 11.7,19.7 11.5,19.3C11.3,18.9 11.2,18.4 11.2,17.9C11.2,16.7 11.7,15.7 12.6,15.1C13.5,14.4 14.9,14.1 16.7,14.1L18.4,14.1L18.4,13.4C18.4,12.8 18.2,12.4 17.9,12.1C17.5,11.8 17,11.6 16.3,11.6C15.7,11.6 15.3,11.7 15,12C14.7,12.3 14.6,12.6 14.6,13L11.6,13C11.6,12.5 11.7,12 11.9,11.6C12.1,11.2 12.4,10.8 12.9,10.4C13.3,10.1 13.8,9.8 14.4,9.6C15,9.4 15.7,9.3 16.5,9.3C17.2,9.3 17.8,9.4 18.4,9.6C19,9.8 19.5,10 20,10.4C20.4,10.7 20.8,11.2 21,11.7C21.2,12.2 21.4,12.8 21.4,13.5L21.4,18.5C21.4,19.1 21.4,19.6 21.5,20C21.6,20.4 21.7,20.8 21.8,21L21.8,21.2L18.7,21.2ZM15.8,19.1C16.1,19.1 16.4,19.1 16.6,19C16.9,18.9 17.1,18.8 17.3,18.7C17.5,18.6 17.7,18.5 17.8,18.3C17.9,18.2 18.1,18 18.2,17.9L18.2,15.9L16.7,15.9C16.2,15.9 15.8,15.9 15.5,16C15.2,16.1 14.9,16.2 14.7,16.4C14.5,16.6 14.3,16.7 14.2,17C14.1,17.2 14.1,17.5 14.1,17.7C14.1,18.1 14.2,18.4 14.5,18.7C14.8,19 15.3,19.1 15.8,19.1Z" style="fill:white;fill-rule:nonzero;"/>
    </g>
</svg>
