<?xml version="1.0" encoding="UTF-8" standalone="no"?>
<!DOCTYPE svg PUBLIC "-//W3C//DTD SVG 1.1//EN" "http://www.w3.org/Graphics/SVG/1.1/DTD/svg11.dtd">
<svg width="100%" height="100%" viewBox="0 0 900 900" version="1.1" xmlns="http://www.w3.org/2000/svg" xmlns:xlink="http://www.w3.org/1999/xlink" xml:space="preserve" xmlns:serif="http://www.serif.com/" style="fill-rule:evenodd;clip-rule:evenodd;stroke-linejoin:round;stroke-miterlimit:2;">
    <rect x="0" y="0" width="900" height="900" style="fill:#131313;"/>
    <path d="M0,484L37.5,488.8C75,493.7 150,503.3 225,522.3C300,541.3 375,569.7 450,561.3C525,553 600,508 675,489.8C750,471.7 825,480.3 862.5,484.7L900,489L900,901L0,901L0,484Z" style="fill:#111111;fill-rule:nonzero;"/>
    <path d="M0,576L37.5,576.3C75,576.7 150,577.3 225,585.8C300,594.3 375,610.7 450,604.7C525,598.7 600,570.3 675,559.5C750,548.7 825,555.3 862.5,558.7L900,562L900,901L0,901L0,576Z" style="fill:#131313;fill-rule:nonzero;"/>
    <path d="M0,606L37.5,605C75,604 150,602 225,615.3C300,628.7 375,657.3 450,674.8C525,692.3 600,698.7 675,687.5C750,676.3 825,647.7 862.5,633.3L900,619L900,901L0,901L0,606Z" style="fill:#161616;fill-rule:nonzero;"/>
    <path d="M0,697L37.5,705.8C75,714.7 150,732.3 225,730.3C300,728.3 375,706.7 450,704.7C525,702.7 600,720.3 675,717.2C750,714 825,690 862.5,678L900,666L900,901L0,901L0,697Z" style="fill:#191919;fill-rule:nonzero;"/>
    <g transform="matrix(-1,0,0,1.19463,900,-175.364)">
        <path d="M0,779L37.5,784.2C75,789.3 150,799.7 225,814.5C300,829.3 375,848.7 450,852C525,855.3 600,842.7 675,834.3C750,826 825,822 862.5,820L900,818L900,901L0,901L0,779Z" style="fill:#202020;fill-rule:nonzero;"/>
    </g>
</svg>
