<?xml version="1.0" encoding="UTF-8" standalone="no"?>
<!DOCTYPE svg PUBLIC "-//W3C//DTD SVG 1.1//EN" "http://www.w3.org/Graphics/SVG/1.1/DTD/svg11.dtd">
<svg width="100%" height="100%" viewBox="0 0 24 24" version="1.1" xmlns="http://www.w3.org/2000/svg" xmlns:xlink="http://www.w3.org/1999/xlink" xml:space="preserve" xmlns:serif="http://www.serif.com/" style="fill-rule:evenodd;clip-rule:evenodd;stroke-linejoin:round;stroke-miterlimit:2;">
    <rect x="0" y="0" width="24" height="24" style="fill:none;fill-rule:nonzero;"/>
    <path d="M9,16L15,16L15,10L19,10L12,3L5,10L9,10L9,16ZM12,5.83L14.17,8L13,8L13,14L11,14L11,8L9.83,8L12,5.83ZM5,18L19,18L19,20L5,20L5,18Z" style="fill:white;fill-rule:nonzero;"/>
    <g id="cloud.svg" transform="matrix(0.998069,0,0,0.998248,11.9942,8.0253)">
        <g transform="matrix(1,0,0,1,-12,-12)">
            <rect x="0" y="0" width="24" height="24" style="fill:none;fill-rule:nonzero;"/>
            <path d="M12,6C14.62,6 16.88,7.86 17.39,10.43L17.69,11.93L19.22,12.04C20.78,12.14 22,13.45 22,15C22,16.65 20.65,18 19,18L6,18C3.79,18 2,16.21 2,14C2,11.95 3.53,10.24 5.56,10.03L6.63,9.92L7.13,8.97C8.08,7.14 9.94,6 12,6M12,4C9.11,4 6.6,5.64 5.35,8.04C2.34,8.36 0,10.91 0,14C0,17.31 2.69,20 6,20L19,20C21.76,20 24,17.76 24,15C24,12.36 21.95,10.22 19.35,10.04C18.67,6.59 15.64,4 12,4Z" style="fill:white;fill-rule:nonzero;"/>
        </g>
    </g>
</svg>
