<svg viewBox="0 0 2330 2330" version="1.1" xmlns="http://www.w3.org/2000/svg" style="fill-rule:evenodd;clip-rule:evenodd;stroke-linejoin:round;stroke-miterlimit:2;"><path d="M1164.58,0c642.751,0 1164.58,521.832 1164.58,1164.58c-0,642.751 -521.833,1164.58 -1164.58,1164.58c-642.751,-0 -1164.58,-521.833 -1164.58,-1164.58c-0,-642.751 521.832,-1164.58 1164.58,-1164.58Zm0,181.398c542.635,-0 983.186,440.55 983.186,983.185c-0,542.635 -440.551,983.186 -983.186,983.186c-542.635,-0 -983.185,-440.551 -983.185,-983.186c-0,-542.635 440.55,-983.185 983.185,-983.185Z" style="fill:#fff;"/><path d="M1342.38,1536.38c-4.35,-10.822 -8.695,-21.643 -13.045,-34.629c-4.35,-12.987 -6.52,-28.138 -8.695,-41.125c-10.87,12.987 -26.089,23.808 -41.309,36.795c-15.219,10.821 -32.61,21.642 -52.179,30.303c-17.39,8.656 -39.134,15.151 -60.874,19.477c-21.739,4.33 -45.654,8.656 -71.743,8.656c-41.309,0 -80.444,-6.491 -117.403,-17.312c-34.784,-12.987 -65.219,-28.138 -91.309,-51.946c-26.089,-21.642 -45.658,-47.615 -58.699,-77.918c-15.219,-30.299 -21.744,-62.767 -21.744,-99.561c0,-86.575 32.614,-153.668 97.834,-201.284c65.223,-47.615 163.056,-71.423 291.329,-71.423l119.573,0l-0,-49.78c-0,-38.96 -13.045,-71.428 -39.135,-93.07c-26.085,-23.808 -63.044,-34.629 -113.048,-34.629c-43.484,-0 -73.919,8.656 -95.663,28.138c-19.565,17.312 -30.435,43.285 -30.435,73.588l-213.06,-0c-0,-34.633 8.695,-69.262 23.914,-99.561c15.22,-32.468 39.134,-58.441 67.399,-82.249c30.434,-23.808 67.394,-43.285 108.703,-56.272c43.479,-15.151 93.483,-21.642 147.837,-21.642c50.004,-0 95.658,6.491 139.142,17.312c43.48,12.987 80.439,30.303 113.053,54.111c32.61,23.808 56.524,54.111 73.918,90.905c17.391,36.794 26.09,77.914 26.09,125.53l-0,352.794c-0,43.285 2.171,80.079 8.695,110.382c6.52,28.138 13.045,54.111 23.915,73.588l8.333,12.987l-220.44,-0l-0.954,-2.165Zm-202.191,-149.342c21.744,0 41.309,-2.165 58.703,-8.656c17.39,-4.33 34.785,-10.821 50.004,-19.482c15.216,-8.656 28.26,-17.312 39.13,-28.134c10.874,-10.821 19.569,-21.646 26.09,-32.468l-0,-140.681l-108.704,-0c-32.609,-0 -60.873,4.326 -84.788,10.821c-23.915,6.491 -43.484,15.152 -56.529,25.973c-15.215,10.821 -26.085,23.808 -32.609,41.12c-6.521,15.152 -10.87,32.468 -10.87,51.946c-0,28.138 10.87,51.946 30.439,71.423c17.39,19.482 47.829,28.138 89.134,28.138Z" style="fill:#fff;fill-rule:nonzero;"/></svg>